# xmcd CD database file
#
# Track frame offsets:
#	150
#	15900
#	30075
#	43210
#	67557
#	93891
#	107054
#	119232
#	132282
#	156553
#	172416
#	188180
#	203293
#	216231
#	229881
#	239556
#	257228
#	267044
#	278416
#	290941
#	302191
#	313685
#	328160
#	343489
#
# Disc length: 4738 seconds
#
# Revision: 0
# Processed by: cddbd v1.5.2PL0 Copyright (c) Steve Scherf et al.
# Submitted via: CDex 1.70beta2
#
DISCID=6d128018
DTITLE=Nina Simone - At Town Hall - The Amazing
DYEAR=1959
DGENRE=Jazz
TTITLE0=Black Is The Color Of My True Love's Hair
TTITLE1=Exactly Like You
TTITLE2=The Other Woman
TTITLE3=Under The Lowest
TTITLE4=You Can Have Him
TTITLE5=Summertime (Instrumental)
TTITLE6=Summertime
TTITLE7=Cotton-Eyed Joe
TTITLE8=Return Home
TTITLE9=Wild Is The Wind
TTITLE10=Fine And Mellow
TTITLE11=Blue Prelude - The Amazing Nina Simone
TTITLE12=Children Go Where I Send You
TTITLE13=Tomorrow We Will Meet Once More
TTITLE14=Stompin' At The Savoy
TTITLE15=It Might As Well Be Spring
TTITLE16=You've Been Gone Too Long
TTITLE17=That's Him Over There
TTITLE18=Chilly Winds Don't Blow
TTITLE19=The Middle Of The Night Theme
TTITLE20=Can't Get Out Of This Mood
TTITLE21=Willow Weep For Me
TTITLE22=Solitaire
TTITLE23=Nobody Knows You When You're Down And Out
EXTD=YEAR: 1959
EXTT0=
EXTT1=
EXTT2=
EXTT3=
EXTT4=
EXTT5=
EXTT6=
EXTT7=
EXTT8=
EXTT9=
EXTT10=
EXTT11=
EXTT12=
EXTT13=
EXTT14=
EXTT15=
EXTT16=
EXTT17=
EXTT18=
EXTT19=
EXTT20=
EXTT21=
EXTT22=
EXTT23=
PLAYORDER=
